<svg xmlns="http://www.w3.org/2000/svg" xmlns:xlink="http://www.w3.org/1999/xlink" width="1876pt" height="1734pt" viewBox="0.00 0.00 1876.00 1734.00">
<g id="graph0" class="graph" transform="scale(1 1) rotate(0) translate(4 1730.28)">
<title>ER</title>
<polygon fill="white" stroke="none" points="-4,4 -4,-1730.28 1871.63,-1730.28 1871.63,4 -4,4"/>
<!-- Sala -->
<g id="node1" class="node">
<title>Sala</title>
<polygon fill="#d6eaf8" stroke="black" points="599.14,-1446.23 512.74,-1446.23 512.74,-1403.03 599.14,-1403.03 599.14,-1446.23"/>
<text xml:space="preserve" text-anchor="middle" x="555.94" y="-1421.03" font-family="Arial" font-size="12.00">Sala</text>
</g>
<!-- Contiene -->
<g id="node11" class="node">
<title>Contiene</title>
<polygon fill="#fcf3cf" stroke="black" points="314.73,-1298.65 267.52,-1259.05 314.73,-1219.45 361.94,-1259.05 314.73,-1298.65"/>
<text xml:space="preserve" text-anchor="middle" x="314.73" y="-1255.45" font-family="Arial" font-size="12.00">Contiene</text>
</g>
<!-- Sala&#45;&#45;Contiene -->
<g id="edge37" class="edge">
<title>Sala--Contiene</title>
<path fill="none" stroke="black" stroke-width="1.5" d="M523.91,-1402.65C475.72,-1369.57 385.5,-1307.63 340.97,-1277.06"/>
<text xml:space="preserve" text-anchor="middle" x="418.85" y="-1342.21" font-family="Arial" font-size="11.00" fill="red">(1,N)</text>
</g>
<!-- Ospita -->
<g id="node12" class="node">
<title>Ospita</title>
<polygon fill="#fcf3cf" stroke="black" points="790.4,-1287.58 750.8,-1247.98 790.4,-1208.38 830,-1247.98 790.4,-1287.58"/>
<text xml:space="preserve" text-anchor="middle" x="790.4" y="-1244.38" font-family="Arial" font-size="12.00">Ospita</text>
</g>
<!-- Sala&#45;&#45;Ospita -->
<g id="edge39" class="edge">
<title>Sala--Ospita</title>
<path fill="none" stroke="black" stroke-width="1.5" d="M585.16,-1402.62C632.42,-1367.01 724.65,-1297.52 767.5,-1265.23"/>
<text xml:space="preserve" text-anchor="middle" x="665.76" y="-1335.98" font-family="Arial" font-size="11.00" fill="red">(0,N)</text>
</g>
<!-- id_sala -->
<g id="node20" class="node">
<title>id_sala</title>
<ellipse fill="#ffffff" stroke="black" cx="461.88" cy="-1408.4" rx="41.5" ry="15.84"/>
<text xml:space="preserve" text-anchor="start" x="440.54" y="-1405.8" font-family="Arial" text-decoration="underline" font-size="12.00">ID_Sala</text>
</g>
<!-- Sala&#45;&#45;id_sala -->
<g id="edge1" class="edge">
<title>Sala--id_sala</title>
<path fill="none" stroke="#555555" d="M512.49,-1417.14C508.35,-1416.42 504.17,-1415.7 500.09,-1415"/>
</g>
<!-- cap -->
<g id="node21" class="node">
<title>cap</title>
<ellipse fill="#ffffff" stroke="black" cx="745.4" cy="-1456.6" rx="47.16" ry="15.84"/>
<text xml:space="preserve" text-anchor="middle" x="745.4" y="-1453" font-family="Arial" font-size="12.00">Capienza</text>
</g>
<!-- Sala&#45;&#45;cap -->
<g id="edge2" class="edge">
<title>Sala--cap</title>
<path fill="none" stroke="#555555" d="M599.41,-1431.97C630.43,-1437.2 671.96,-1444.21 702.79,-1449.41"/>
</g>
<!-- dim -->
<g id="node22" class="node">
<title>dim</title>
<ellipse fill="#ffffff" stroke="black" cx="535.77" cy="-1338.04" rx="42.9" ry="15.84"/>
<text xml:space="preserve" text-anchor="middle" x="535.77" y="-1334.44" font-family="Arial" font-size="12.00">Dim. mq</text>
</g>
<!-- Sala&#45;&#45;dim -->
<g id="edge3" class="edge">
<title>Sala--dim</title>
<path fill="none" stroke="#555555" d="M550.85,-1402.78C547.33,-1387.65 542.71,-1367.85 539.52,-1354.14"/>
</g>
<!-- spec -->
<g id="node23" class="node">
<title>spec</title>
<ellipse fill="#ffffff" stroke="black" cx="538.46" cy="-1529.71" rx="73.11" ry="15.84"/>
<text xml:space="preserve" text-anchor="middle" x="538.46" y="-1526.11" font-family="Arial" font-size="12.00">Apparecchiature</text>
</g>
<!-- Sala&#45;&#45;spec -->
<g id="edge4" class="edge">
<title>Sala--spec</title>
<path fill="none" stroke="#555555" d="M552.28,-1446.66C548.95,-1466.64 544.13,-1495.63 541.15,-1513.54"/>
</g>
<!-- Poltrona -->
<g id="node2" class="node">
<title>Poltrona</title>
<polygon fill="#d6eaf8" stroke="black" points="200.2,-1065.15 113.8,-1065.15 113.8,-1021.95 200.2,-1021.95 200.2,-1065.15"/>
<text xml:space="preserve" text-anchor="middle" x="157" y="-1039.95" font-family="Arial" font-size="12.00">Poltrona</text>
</g>
<!-- id_polt -->
<g id="node27" class="node">
<title>id_polt</title>
<ellipse fill="#ffffff" stroke="black" cx="104.99" cy="-961" rx="56.12" ry="15.84"/>
<text xml:space="preserve" text-anchor="start" x="73.3" y="-958.4" font-family="Arial" text-decoration="underline" font-size="12.00">ID_Poltrona</text>
</g>
<!-- Poltrona&#45;&#45;id_polt -->
<g id="edge8" class="edge">
<title>Poltrona--id_polt</title>
<path fill="none" stroke="#555555" d="M143.33,-1021.86C134.48,-1007.82 123.15,-989.84 115.11,-977.07"/>
</g>
<!-- fila -->
<g id="node28" class="node">
<title>fila</title>
<ellipse fill="#ffffff" stroke="black" cx="97.5" cy="-1122.49" rx="32.4" ry="15.84"/>
<text xml:space="preserve" text-anchor="middle" x="97.5" y="-1118.89" font-family="Arial" font-size="12.00">Fila</text>
</g>
<!-- Poltrona&#45;&#45;fila -->
<g id="edge9" class="edge">
<title>Poltrona--fila</title>
<path fill="none" stroke="#555555" d="M140.43,-1065.54C130.38,-1078.86 117.83,-1095.51 108.9,-1107.36"/>
</g>
<!-- pos -->
<g id="node29" class="node">
<title>pos</title>
<ellipse fill="#ffffff" stroke="black" cx="48.11" cy="-1036.98" rx="48.11" ry="15.84"/>
<text xml:space="preserve" text-anchor="middle" x="48.11" y="-1033.38" font-family="Arial" font-size="12.00">Posizione</text>
</g>
<!-- Poltrona&#45;&#45;pos -->
<g id="edge10" class="edge">
<title>Poltrona--pos</title>
<path fill="none" stroke="#555555" d="M113.34,-1040.92C107.54,-1040.57 101.57,-1040.21 95.71,-1039.86"/>
</g>
<!-- Film -->
<g id="node3" class="node">
<title>Film</title>
<polygon fill="#d6eaf8" stroke="black" points="1405.8,-645.56 1319.4,-645.56 1319.4,-602.36 1405.8,-602.36 1405.8,-645.56"/>
<text xml:space="preserve" text-anchor="middle" x="1362.6" y="-620.36" font-family="Arial" font-size="12.00">Film</text>
</g>
<!-- Programmato -->
<g id="node13" class="node">
<title>Programmato</title>
<polygon fill="#fcf3cf" stroke="black" points="1185.64,-879.9 1120.26,-840.3 1185.64,-800.7 1251.02,-840.3 1185.64,-879.9"/>
<text xml:space="preserve" text-anchor="middle" x="1185.64" y="-836.7" font-family="Arial" font-size="12.00">Programmato</text>
</g>
<!-- Film&#45;&#45;Programmato -->
<g id="edge41" class="edge">
<title>Film--Programmato</title>
<path fill="none" stroke="black" stroke-width="1.5" d="M1344.66,-645.89C1311.97,-685.85 1242.84,-770.37 1207.47,-813.61"/>
<text xml:space="preserve" text-anchor="middle" x="1264.85" y="-731.82" font-family="Arial" font-size="11.00" fill="red">(0,N)</text>
</g>
<!-- id_film -->
<g id="node30" class="node">
<title>id_film</title>
<ellipse fill="#ffffff" stroke="black" cx="1444.05" cy="-552.8" rx="40.54" ry="15.84"/>
<text xml:space="preserve" text-anchor="start" x="1423.39" y="-550.2" font-family="Arial" text-decoration="underline" font-size="12.00">ID_Film</text>
</g>
<!-- Film&#45;&#45;id_film -->
<g id="edge11" class="edge">
<title>Film--id_film</title>
<path fill="none" stroke="#555555" d="M1387.48,-602.22C1400.4,-590.94 1415.82,-577.46 1427.31,-567.43"/>
</g>
<!-- tit -->
<g id="node31" class="node">
<title>tit</title>
<ellipse fill="#ffffff" stroke="black" cx="1407.3" cy="-697.36" rx="32.4" ry="15.84"/>
<text xml:space="preserve" text-anchor="middle" x="1407.3" y="-693.76" font-family="Arial" font-size="12.00">Titolo</text>
</g>
<!-- Film&#45;&#45;tit -->
<g id="edge12" class="edge">
<title>Film--tit</title>
<path fill="none" stroke="#555555" d="M1376.02,-645.98C1383.11,-657.64 1391.65,-671.66 1398.01,-682.11"/>
</g>
<!-- dur -->
<g id="node32" class="node">
<title>dur</title>
<ellipse fill="#ffffff" stroke="black" cx="1469.41" cy="-634.63" rx="52.81" ry="15.84"/>
<text xml:space="preserve" text-anchor="middle" x="1469.41" y="-631.03" font-family="Arial" font-size="12.00">Durata min</text>
</g>
<!-- Film&#45;&#45;dur -->
<g id="edge13" class="edge">
<title>Film--dur</title>
<path fill="none" stroke="#555555" d="M1406.05,-628.3C1410.32,-628.73 1414.68,-629.16 1419.02,-629.6"/>
</g>
<!-- gen -->
<g id="node33" class="node">
<title>gen</title>
<ellipse fill="#ffffff" stroke="black" cx="1342.4" cy="-531.14" rx="39.62" ry="15.84"/>
<ellipse fill="none" stroke="black" cx="1342.4" cy="-531.14" rx="43.62" ry="19.84"/>
<text xml:space="preserve" text-anchor="middle" x="1342.4" y="-527.54" font-family="Arial" font-size="12.00">Genere</text>
</g>
<!-- Film&#45;&#45;gen -->
<g id="edge14" class="edge">
<title>Film--gen</title>
<path fill="none" stroke="#555555" d="M1357.82,-601.96C1354.45,-586.52 1350,-566.05 1346.74,-551.08"/>
</g>
<!-- autore -->
<g id="node34" class="node">
<title>autore</title>
<ellipse fill="#ffffff" stroke="black" cx="1136.86" cy="-586.12" rx="33.48" ry="15.84"/>
<ellipse fill="none" stroke="black" cx="1136.86" cy="-586.12" rx="37.48" ry="19.84"/>
<text xml:space="preserve" text-anchor="middle" x="1136.86" y="-582.52" font-family="Arial" font-size="12.00">Autori</text>
</g>
<!-- Film&#45;&#45;autore -->
<g id="edge15" class="edge">
<title>Film--autore</title>
<path fill="none" stroke="#555555" d="M1319.08,-616.66C1276.54,-609.53 1212.55,-598.8 1172.82,-592.14"/>
</g>
<!-- Proiezione -->
<g id="node4" class="node">
<title>Proiezione</title>
<polygon fill="#d6eaf8" stroke="black" points="1043.05,-1075.3 956.65,-1075.3 956.65,-1032.1 1043.05,-1032.1 1043.05,-1075.3"/>
<text xml:space="preserve" text-anchor="middle" x="999.85" y="-1050.1" font-family="Arial" font-size="12.00">Proiezione</text>
</g>
<!-- Preceduta_Da -->
<g id="node19" class="node">
<title>Preceduta_Da</title>
<polygon fill="#fcf3cf" stroke="black" points="1215.1,-1272.72 1146.75,-1233.12 1215.1,-1193.52 1283.45,-1233.12 1215.1,-1272.72"/>
<text xml:space="preserve" text-anchor="middle" x="1215.1" y="-1229.52" font-family="Arial" font-size="12.00">Preceduta_Da</text>
</g>
<!-- Proiezione&#45;&#45;Preceduta_Da -->
<g id="edge53" class="edge">
<title>Proiezione--Preceduta_Da</title>
<path fill="none" stroke="black" stroke-width="1.5" d="M1026.25,-1075.7C1067,-1109.67 1144.89,-1174.6 1186.78,-1209.52"/>
<text xml:space="preserve" text-anchor="middle" x="1093.86" y="-1145.55" font-family="Arial" font-size="11.00" fill="red">(0,N)</text>
</g>
<!-- id_proiez -->
<g id="node35" class="node">
<title>id_proiez</title>
<ellipse fill="#ffffff" stroke="black" cx="1145.15" cy="-1057.43" rx="64.61" ry="15.84"/>
<text xml:space="preserve" text-anchor="start" x="1107.46" y="-1054.83" font-family="Arial" text-decoration="underline" font-size="12.00">ID_Proiezione</text>
</g>
<!-- Proiezione&#45;&#45;id_proiez -->
<g id="edge16" class="edge">
<title>Proiezione--id_proiez</title>
<path fill="none" stroke="#555555" d="M1043.45,-1054.82C1055.15,-1055.12 1068.06,-1055.45 1080.63,-1055.77"/>
</g>
<!-- data_p -->
<g id="node36" class="node">
<title>data_p</title>
<ellipse fill="#ffffff" stroke="black" cx="1017.38" cy="-974.62" rx="32.4" ry="15.84"/>
<text xml:space="preserve" text-anchor="middle" x="1017.38" y="-971.02" font-family="Arial" font-size="12.00">Data</text>
</g>
<!-- Proiezione&#45;&#45;data_p -->
<g id="edge17" class="edge">
<title>Proiezione--data_p</title>
<path fill="none" stroke="#555555" d="M1004.74,-1031.67C1007.61,-1018.69 1011.19,-1002.56 1013.8,-990.76"/>
</g>
<!-- ora_i -->
<g id="node37" class="node">
<title>ora_i</title>
<ellipse fill="#ffffff" stroke="black" cx="865.76" cy="-1044.73" rx="47.62" ry="15.84"/>
<text xml:space="preserve" text-anchor="middle" x="865.76" y="-1041.13" font-family="Arial" font-size="12.00">Ora Inizio</text>
</g>
<!-- Proiezione&#45;&#45;ora_i -->
<g id="edge18" class="edge">
<title>Proiezione--ora_i</title>
<path fill="none" stroke="#555555" d="M956.32,-1050.79C942.4,-1049.85 926.93,-1048.82 912.78,-1047.87"/>
</g>
<!-- ora_f -->
<g id="node38" class="node">
<title>ora_f</title>
<ellipse fill="#ffffff" stroke="black" cx="992.27" cy="-1135.53" rx="44.32" ry="15.84"/>
<text xml:space="preserve" text-anchor="middle" x="992.27" y="-1131.93" font-family="Arial" font-size="12.00">Ora Fine</text>
</g>
<!-- Proiezione&#45;&#45;ora_f -->
<g id="edge19" class="edge">
<title>Proiezione--ora_f</title>
<path fill="none" stroke="#555555" d="M997.82,-1075.63C996.55,-1089.36 994.93,-1106.75 993.78,-1119.26"/>
</g>
<!-- Cliente -->
<g id="node5" class="node">
<title>Cliente</title>
<polygon fill="#d6eaf8" stroke="black" points="656.48,-213.37 570.08,-213.37 570.08,-170.17 656.48,-170.17 656.48,-213.37"/>
<text xml:space="preserve" text-anchor="middle" x="613.28" y="-188.17" font-family="Arial" font-size="12.00">Cliente</text>
</g>
<!-- Acquista -->
<g id="node14" class="node">
<title>Acquista</title>
<polygon fill="#fcf3cf" stroke="black" points="559.1,-456.9 513.38,-417.3 559.1,-377.7 604.83,-417.3 559.1,-456.9"/>
<text xml:space="preserve" text-anchor="middle" x="559.1" y="-413.7" font-family="Arial" font-size="12.00">Acquista</text>
</g>
<!-- Cliente&#45;&#45;Acquista -->
<g id="edge43" class="edge">
<title>Cliente--Acquista</title>
<path fill="none" stroke="black" stroke-width="1.5" d="M607.99,-213.81C598.43,-253.6 578.24,-337.64 567.03,-384.31"/>
<text xml:space="preserve" text-anchor="middle" x="575.9" y="-299.78" font-family="Arial" font-size="11.00" fill="red">(0,N)</text>
</g>
<!-- Scrive -->
<g id="node17" class="node">
<title>Scrive</title>
<polygon fill="#fcf3cf" stroke="black" points="889.61,-100.44 850.01,-60.84 889.61,-21.24 929.21,-60.84 889.61,-100.44"/>
<text xml:space="preserve" text-anchor="middle" x="889.61" y="-57.24" font-family="Arial" font-size="12.00">Scrive</text>
</g>
<!-- Cliente&#45;&#45;Scrive -->
<g id="edge49" class="edge">
<title>Cliente--Scrive</title>
<path fill="none" stroke="black" stroke-width="1.5" d="M656.76,-171.17C714.36,-143.88 814.27,-96.54 862.29,-73.79"/>
<text xml:space="preserve" text-anchor="middle" x="750.9" y="-124.07" font-family="Arial" font-size="11.00" fill="red">(0,N)</text>
</g>
<!-- id_cli -->
<g id="node39" class="node">
<title>id_cli</title>
<ellipse fill="#ffffff" stroke="black" cx="647.67" cy="-61.05" rx="50.93" ry="15.84"/>
<text xml:space="preserve" text-anchor="start" x="619.66" y="-58.45" font-family="Arial" text-decoration="underline" font-size="12.00">ID_Cliente</text>
</g>
<!-- Cliente&#45;&#45;id_cli -->
<g id="edge20" class="edge">
<title>Cliente--id_cli</title>
<path fill="none" stroke="#555555" d="M619.04,-169.89C625.92,-143.73 637.28,-100.55 643.42,-77.22"/>
</g>
<!-- nome -->
<g id="node40" class="node">
<title>nome</title>
<ellipse fill="#ffffff" stroke="black" cx="550.32" cy="-76.53" rx="33.95" ry="15.84"/>
<text xml:space="preserve" text-anchor="middle" x="550.32" y="-72.93" font-family="Arial" font-size="12.00">Nome</text>
</g>
<!-- Cliente&#45;&#45;nome -->
<g id="edge21" class="edge">
<title>Cliente--nome</title>
<path fill="none" stroke="#555555" d="M601.29,-169.82C588.87,-147.1 569.79,-112.17 558.84,-92.12"/>
</g>
<!-- cog -->
<g id="node41" class="node">
<title>cog</title>
<ellipse fill="#ffffff" stroke="black" cx="782.83" cy="-269.02" rx="48.11" ry="15.84"/>
<text xml:space="preserve" text-anchor="middle" x="782.83" y="-265.42" font-family="Arial" font-size="12.00">Cognome</text>
</g>
<!-- Cliente&#45;&#45;cog -->
<g id="edge22" class="edge">
<title>Cliente--cog</title>
<path fill="none" stroke="#555555" d="M656.94,-211.66C687.55,-225.61 727.6,-243.86 754.22,-255.99"/>
</g>
<!-- email -->
<g id="node42" class="node">
<title>email</title>
<ellipse fill="#ffffff" stroke="black" cx="523.02" cy="-167.43" rx="32.53" ry="15.84"/>
<text xml:space="preserve" text-anchor="middle" x="523.02" y="-163.83" font-family="Arial" font-size="12.00">Email</text>
</g>
<!-- Cliente&#45;&#45;email -->
<g id="edge23" class="edge">
<title>Cliente--email</title>
<path fill="none" stroke="#555555" d="M569.73,-180.03C563.69,-178.4 557.61,-176.76 551.93,-175.23"/>
</g>
<!-- Biglietto -->
<g id="node6" class="node">
<title>Biglietto</title>
<polygon fill="#d6eaf8" stroke="black" points="598.13,-717.6 511.73,-717.6 511.73,-674.4 598.13,-674.4 598.13,-717.6"/>
<text xml:space="preserve" text-anchor="middle" x="554.93" y="-692.4" font-family="Arial" font-size="12.00">Biglietto</text>
</g>
<!-- Valido_Per -->
<g id="node15" class="node">
<title>Valido_Per</title>
<polygon fill="#fcf3cf" stroke="black" points="790.08,-909.59 735,-869.99 790.08,-830.39 845.15,-869.99 790.08,-909.59"/>
<text xml:space="preserve" text-anchor="middle" x="790.08" y="-866.39" font-family="Arial" font-size="12.00">Valido_Per</text>
</g>
<!-- Biglietto&#45;&#45;Valido_Per -->
<g id="edge45" class="edge">
<title>Biglietto--Valido_Per</title>
<path fill="none" stroke="black" stroke-width="1.5" d="M584.71,-718.03C630.68,-752.05 718.26,-816.85 762.72,-849.75"/>
<text xml:space="preserve" text-anchor="middle" x="662.98" y="-787.61" font-family="Arial" font-size="11.00" fill="red">(1,1)</text>
</g>
<!-- Riserva -->
<g id="node16" class="node">
<title>Riserva</title>
<polygon fill="#fcf3cf" stroke="black" points="317.7,-870.9 275.92,-831.3 317.7,-791.7 359.48,-831.3 317.7,-870.9"/>
<text xml:space="preserve" text-anchor="middle" x="317.7" y="-827.7" font-family="Arial" font-size="12.00">Riserva</text>
</g>
<!-- Biglietto&#45;&#45;Riserva -->
<g id="edge47" class="edge">
<title>Biglietto--Riserva</title>
<path fill="none" stroke="black" stroke-width="1.5" d="M516.29,-718.04C467.84,-745.67 386.08,-792.3 344.18,-816.2"/>
<text xml:space="preserve" text-anchor="middle" x="416.47" y="-771.82" font-family="Arial" font-size="11.00" fill="red">(1,1)</text>
</g>
<!-- id_bigl -->
<g id="node43" class="node">
<title>id_bigl</title>
<ellipse fill="#ffffff" stroke="black" cx="490.59" cy="-744.9" rx="54.71" ry="15.84"/>
<text xml:space="preserve" text-anchor="start" x="459.91" y="-742.3" font-family="Arial" text-decoration="underline" font-size="12.00">ID_Biglietto</text>
</g>
<!-- Biglietto&#45;&#45;id_bigl -->
<g id="edge24" class="edge">
<title>Biglietto--id_bigl</title>
<path fill="none" stroke="#555555" d="M526.15,-717.87C520.79,-721.94 515.31,-726.11 510.31,-729.91"/>
</g>
<!-- prez -->
<g id="node44" class="node">
<title>prez</title>
<ellipse fill="#ffffff" stroke="black" cx="693.14" cy="-728.83" rx="37.72" ry="15.84"/>
<text xml:space="preserve" text-anchor="middle" x="693.14" y="-725.23" font-family="Arial" font-size="12.00">Prezzo</text>
</g>
<!-- Biglietto&#45;&#45;prez -->
<g id="edge25" class="edge">
<title>Biglietto--prez</title>
<path fill="none" stroke="#555555" d="M598.28,-706.29C618.23,-711.03 641.52,-716.57 660.03,-720.96"/>
</g>
<!-- tipo_v -->
<g id="node45" class="node">
<title>tipo_v</title>
<ellipse fill="#ffffff" stroke="black" cx="594.74" cy="-616.11" rx="58.96" ry="15.84"/>
<text xml:space="preserve" text-anchor="middle" x="594.74" y="-612.51" font-family="Arial" font-size="12.00">Tipo Vendita</text>
</g>
<!-- Biglietto&#45;&#45;tipo_v -->
<g id="edge26" class="edge">
<title>Biglietto--tipo_v</title>
<path fill="none" stroke="#555555" d="M565.81,-674.17C572.44,-660.86 580.76,-644.16 586.78,-632.09"/>
</g>
<!-- data_a -->
<g id="node46" class="node">
<title>data_a</title>
<ellipse fill="#ffffff" stroke="black" cx="475.13" cy="-639.96" rx="64.14" ry="15.84"/>
<text xml:space="preserve" text-anchor="middle" x="475.13" y="-636.36" font-family="Arial" font-size="12.00">Data Acquisto</text>
</g>
<!-- Biglietto&#45;&#45;data_a -->
<g id="edge27" class="edge">
<title>Biglietto--data_a</title>
<path fill="none" stroke="#555555" d="M523.85,-674.17C514.75,-667.78 505,-660.93 496.63,-655.06"/>
</g>
<!-- Feedback -->
<g id="node7" class="node">
<title>Feedback</title>
<polygon fill="#d6eaf8" stroke="black" points="1146.33,-227.42 1059.93,-227.42 1059.93,-184.22 1146.33,-184.22 1146.33,-227.42"/>
<text xml:space="preserve" text-anchor="middle" x="1103.13" y="-202.22" font-family="Arial" font-size="12.00">Feedback</text>
</g>
<!-- Riguarda -->
<g id="node18" class="node">
<title>Riguarda</title>
<polygon fill="#fcf3cf" stroke="black" points="1290.21,-383.5 1242.51,-343.9 1290.21,-304.3 1337.9,-343.9 1290.21,-383.5"/>
<text xml:space="preserve" text-anchor="middle" x="1290.21" y="-340.3" font-family="Arial" font-size="12.00">Riguarda</text>
</g>
<!-- Feedback&#45;&#45;Riguarda -->
<g id="edge51" class="edge">
<title>Feedback--Riguarda</title>
<path fill="none" stroke="black" stroke-width="1.5" d="M1132.77,-227.7C1169.14,-254.54 1230.2,-299.6 1264.61,-325"/>
<text xml:space="preserve" text-anchor="middle" x="1188.12" y="-280.19" font-family="Arial" font-size="11.00" fill="red">(1,1)</text>
</g>
<!-- id_feed -->
<g id="node47" class="node">
<title>id_feed</title>
<ellipse fill="#ffffff" stroke="black" cx="1209.96" cy="-15.84" rx="61.78" ry="15.84"/>
<text xml:space="preserve" text-anchor="start" x="1174.27" y="-13.24" font-family="Arial" text-decoration="underline" font-size="12.00">ID_Feedback</text>
</g>
<!-- Feedback&#45;&#45;id_feed -->
<g id="edge28" class="edge">
<title>Feedback--id_feed</title>
<path fill="none" stroke="#555555" d="M1115.38,-184.03C1137.08,-145.43 1181.79,-65.93 1200.93,-31.88"/>
</g>
<!-- voto -->
<g id="node48" class="node">
<title>voto</title>
<ellipse fill="#ffffff" stroke="black" cx="1111.39" cy="-38.38" rx="32.4" ry="15.84"/>
<text xml:space="preserve" text-anchor="middle" x="1111.39" y="-34.78" font-family="Arial" font-size="12.00">Voto</text>
</g>
<!-- Feedback&#45;&#45;voto -->
<g id="edge29" class="edge">
<title>Feedback--voto</title>
<path fill="none" stroke="#555555" d="M1104.21,-183.93C1105.89,-149.71 1109.12,-84.36 1110.6,-54.27"/>
</g>
<!-- testo -->
<g id="node49" class="node">
<title>testo</title>
<ellipse fill="#ffffff" stroke="black" cx="1560.27" cy="-58.34" rx="56.13" ry="15.84"/>
<text xml:space="preserve" text-anchor="middle" x="1560.27" y="-54.74" font-family="Arial" font-size="12.00">Recensione</text>
</g>
<!-- Feedback&#45;&#45;testo -->
<g id="edge30" class="edge">
<title>Feedback--testo</title>
<path fill="none" stroke="#555555" d="M1146.54,-191.81C1235.8,-163.01 1438.57,-97.6 1522.65,-70.47"/>
</g>
<!-- Video_Extra -->
<g id="node8" class="node">
<title>Video_Extra</title>
<polygon fill="#d6eaf8" stroke="black" points="1461.32,-1433.94 1374.92,-1433.94 1374.92,-1390.74 1461.32,-1390.74 1461.32,-1433.94"/>
<text xml:space="preserve" text-anchor="middle" x="1418.12" y="-1408.74" font-family="Arial" font-size="12.00">Video_Extra</text>
</g>
<!-- id_vid -->
<g id="node50" class="node">
<title>id_vid</title>
<ellipse fill="#ffffff" stroke="black" cx="1474.41" cy="-1338.3" rx="46.22" ry="15.84"/>
<text xml:space="preserve" text-anchor="start" x="1449.73" y="-1335.7" font-family="Arial" text-decoration="underline" font-size="12.00">ID_Video</text>
</g>
<!-- Video_Extra&#45;&#45;id_vid -->
<g id="edge31" class="edge">
<title>Video_Extra--id_vid</title>
<path fill="none" stroke="#555555" d="M1434.71,-1390.53C1443.66,-1378.76 1454.49,-1364.5 1462.58,-1353.86"/>
</g>
<!-- tit_v -->
<g id="node51" class="node">
<title>tit_v</title>
<ellipse fill="#ffffff" stroke="black" cx="1363.35" cy="-1484.61" rx="32.4" ry="15.84"/>
<text xml:space="preserve" text-anchor="middle" x="1363.35" y="-1481.01" font-family="Arial" font-size="12.00">Titolo</text>
</g>
<!-- Video_Extra&#45;&#45;tit_v -->
<g id="edge32" class="edge">
<title>Video_Extra--tit_v</title>
<path fill="none" stroke="#555555" d="M1401.39,-1434.42C1392.71,-1445.88 1382.33,-1459.57 1374.61,-1469.75"/>
</g>
<!-- dur_v -->
<g id="node52" class="node">
<title>dur_v</title>
<ellipse fill="#ffffff" stroke="black" cx="1489.62" cy="-1458.18" rx="36.78" ry="15.84"/>
<text xml:space="preserve" text-anchor="middle" x="1489.62" y="-1454.58" font-family="Arial" font-size="12.00">Durata</text>
</g>
<!-- Video_Extra&#45;&#45;dur_v -->
<g id="edge33" class="edge">
<title>Video_Extra--dur_v</title>
<path fill="none" stroke="#555555" d="M1452.2,-1434.19C1457.81,-1437.78 1463.47,-1441.42 1468.64,-1444.73"/>
</g>
<!-- Spot -->
<g id="node9" class="node">
<title>Spot</title>
<polygon fill="#d6eaf8" stroke="black" points="1709.02,-1279.77 1622.62,-1279.77 1622.62,-1236.57 1709.02,-1236.57 1709.02,-1279.77"/>
<text xml:space="preserve" text-anchor="middle" x="1665.82" y="-1254.57" font-family="Arial" font-size="12.00">Spot</text>
</g>
<!-- Spot&#45;&#45;Video_Extra -->
<g id="edge55" class="edge">
<title>Spot--Video_Extra</title>
<path fill="none" stroke="#2e86c1" stroke-width="1.5" stroke-dasharray="5,2" d="M1630.33,-1280.26C1583.24,-1309.57 1500.6,-1361.01 1453.55,-1390.3"/>
<text xml:space="preserve" text-anchor="middle" x="1531.23" y="-1338.58" font-family="Arial" font-size="11.00" fill="#2e86c1">IS-A</text>
</g>
<!-- az_sponsor -->
<g id="node53" class="node">
<title>az_sponsor</title>
<ellipse fill="#ffffff" stroke="black" cx="1791.69" cy="-1417.47" rx="75.94" ry="15.84"/>
<text xml:space="preserve" text-anchor="middle" x="1791.69" y="-1413.87" font-family="Arial" font-size="12.00">Azienda Sponsor</text>
</g>
<!-- Spot&#45;&#45;az_sponsor -->
<g id="edge34" class="edge">
<title>Spot--az_sponsor</title>
<path fill="none" stroke="#555555" d="M1683.06,-1279.98C1708.78,-1312.53 1756.59,-1373.05 1779.21,-1401.68"/>
</g>
<!-- Anteprima -->
<g id="node10" class="node">
<title>Anteprima</title>
<polygon fill="#d6eaf8" stroke="black" points="1475.02,-1638.28 1388.62,-1638.28 1388.62,-1595.08 1475.02,-1595.08 1475.02,-1638.28"/>
<text xml:space="preserve" text-anchor="middle" x="1431.82" y="-1613.08" font-family="Arial" font-size="12.00">Anteprima</text>
</g>
<!-- Anteprima&#45;&#45;Video_Extra -->
<g id="edge56" class="edge">
<title>Anteprima--Video_Extra</title>
<path fill="none" stroke="#2e86c1" stroke-width="1.5" stroke-dasharray="5,2" d="M1430.35,-1594.81C1427.72,-1555.59 1422.24,-1473.7 1419.6,-1434.36"/>
<text xml:space="preserve" text-anchor="middle" x="1414.28" y="-1517.93" font-family="Arial" font-size="11.00" fill="#2e86c1">IS-A</text>
</g>
<!-- data_usc -->
<g id="node54" class="node">
<title>data_usc</title>
<ellipse fill="#ffffff" stroke="black" cx="1459.57" cy="-1710.44" rx="55.17" ry="15.84"/>
<text xml:space="preserve" text-anchor="middle" x="1459.57" y="-1706.84" font-family="Arial" font-size="12.00">Data Uscita</text>
</g>
<!-- Anteprima&#45;&#45;data_usc -->
<g id="edge35" class="edge">
<title>Anteprima--data_usc</title>
<path fill="none" stroke="#555555" d="M1438.25,-1638.43C1443.31,-1655.52 1450.25,-1678.95 1454.81,-1694.38"/>
</g>
<!-- Contiene&#45;&#45;Poltrona -->
<g id="edge38" class="edge">
<title>Contiene--Poltrona</title>
<path fill="none" stroke="black" stroke-width="1.5" d="M296.64,-1234.33C265.56,-1191.88 202.55,-1105.79 172.99,-1065.4"/>
<text xml:space="preserve" text-anchor="middle" x="222.94" y="-1152.39" font-family="Arial" font-size="11.00" fill="red">(1,1)</text>
</g>
<!-- Ospita&#45;&#45;Proiezione -->
<g id="edge40" class="edge">
<title>Ospita--Proiezione</title>
<path fill="none" stroke="black" stroke-width="1.5" d="M811.25,-1228.64C850.46,-1192.27 934.97,-1113.88 976.22,-1075.62"/>
<text xml:space="preserve" text-anchor="middle" x="881.66" y="-1156.14" font-family="Arial" font-size="11.00" fill="red">(1,1)</text>
</g>
<!-- Programmato&#45;&#45;Proiezione -->
<g id="edge42" class="edge">
<title>Programmato--Proiezione</title>
<path fill="none" stroke="black" stroke-width="1.5" d="M1162.86,-866.47C1125.84,-908.98 1053.32,-992.28 1018.88,-1031.84"/>
<text xml:space="preserve" text-anchor="middle" x="1078.6" y="-953.56" font-family="Arial" font-size="11.00" fill="red">(1,1)</text>
</g>
<!-- Acquista&#45;&#45;Biglietto -->
<g id="edge44" class="edge">
<title>Acquista--Biglietto</title>
<path fill="none" stroke="black" stroke-width="1.5" d="M558.51,-456.94C557.62,-516.45 555.96,-626.91 555.26,-673.91"/>
<text xml:space="preserve" text-anchor="middle" x="545.5" y="-573.41" font-family="Arial" font-size="11.00" fill="red">(1,1)</text>
</g>
<!-- Valido_Per&#45;&#45;Proiezione -->
<g id="edge46" class="edge">
<title>Valido_Per--Proiezione</title>
<path fill="none" stroke="black" stroke-width="1.5" d="M814.96,-891.79C855.23,-927.05 934.22,-996.22 974.67,-1031.65"/>
<text xml:space="preserve" text-anchor="middle" x="882.53" y="-964.95" font-family="Arial" font-size="11.00" fill="red">(0,N)</text>
</g>
<!-- Riserva&#45;&#45;Poltrona -->
<g id="edge48" class="edge">
<title>Riserva--Poltrona</title>
<path fill="none" stroke="black" stroke-width="1.5" d="M300.2,-854.42C268.96,-895.68 204.03,-981.44 173.52,-1021.74"/>
<text xml:space="preserve" text-anchor="middle" x="224.36" y="-941.74" font-family="Arial" font-size="11.00" fill="red">(0,N)</text>
</g>
<!-- Scrive&#45;&#45;Feedback -->
<g id="edge50" class="edge">
<title>Scrive--Feedback</title>
<path fill="none" stroke="black" stroke-width="1.5" d="M913.27,-76.91C951.6,-102.94 1027.32,-154.35 1070.66,-183.77"/>
<text xml:space="preserve" text-anchor="middle" x="978.78" y="-132.37" font-family="Arial" font-size="11.00" fill="red">(1,1)</text>
</g>
<!-- Riguarda&#45;&#45;Film -->
<g id="edge52" class="edge">
<title>Riguarda--Film</title>
<path fill="none" stroke="black" stroke-width="1.5" d="M1298.73,-376.85C1313.68,-434.68 1344.26,-552.97 1356.92,-601.96"/>
<text xml:space="preserve" text-anchor="middle" x="1316.46" y="-496.02" font-family="Arial" font-size="11.00" fill="red">(0,N)</text>
</g>
<!-- Preceduta_Da&#45;&#45;Video_Extra -->
<g id="edge54" class="edge">
<title>Preceduta_Da--Video_Extra</title>
<path fill="none" stroke="black" stroke-width="1.5" d="M1242.48,-1257.29C1282.2,-1292.36 1355.22,-1356.82 1393.4,-1390.52"/>
<text xml:space="preserve" text-anchor="middle" x="1306.3" y="-1327.72" font-family="Arial" font-size="11.00" fill="red">(0,N)</text>
</g>
<!-- ord_rip -->
<g id="node55" class="node">
<title>ord_rip</title>
<ellipse fill="#ffffff" stroke="black" cx="1180.06" cy="-1315.41" rx="61.31" ry="26.02"/>
<text xml:space="preserve" text-anchor="middle" x="1180.06" y="-1319.01" font-family="Arial" font-size="12.00">Ordine</text>
<text xml:space="preserve" text-anchor="middle" x="1180.06" y="-1304.61" font-family="Arial" font-size="12.00">Riproduzione</text>
</g>
<!-- Preceduta_Da&#45;&#45;ord_rip -->
<g id="edge36" class="edge">
<title>Preceduta_Da--ord_rip</title>
<path fill="none" stroke="#555555" d="M1201.45,-1265.17C1198.03,-1273.21 1194.4,-1281.73 1191.13,-1289.42"/>
</g>
<!-- schermo -->
<g id="node24" class="node">
<title>schermo</title>
<ellipse fill="#ffffff" stroke="black" cx="523.33" cy="-1616.03" rx="45.27" ry="15.84"/>
<text xml:space="preserve" text-anchor="middle" x="523.33" y="-1612.43" font-family="Arial" font-size="12.00">Schermo</text>
</g>
<!-- spec&#45;&#45;schermo -->
<g id="edge5" class="edge">
<title>spec--schermo</title>
<path fill="none" stroke="#555555" d="M535.61,-1545.94C532.91,-1561.37 528.87,-1584.46 526.17,-1599.86"/>
</g>
<!-- tec -->
<g id="node25" class="node">
<title>tec</title>
<ellipse fill="#ffffff" stroke="black" cx="454.55" cy="-1560.69" rx="52.82" ry="15.84"/>
<text xml:space="preserve" text-anchor="middle" x="454.55" y="-1557.09" font-family="Arial" font-size="12.00">Tecnologia</text>
</g>
<!-- spec&#45;&#45;tec -->
<g id="edge6" class="edge">
<title>spec--tec</title>
<path fill="none" stroke="#555555" d="M500.92,-1543.57C496.74,-1545.11 492.49,-1546.68 488.35,-1548.21"/>
</g>
<!-- audio -->
<g id="node26" class="node">
<title>audio</title>
<ellipse fill="#ffffff" stroke="black" cx="604.76" cy="-1587.17" rx="33.02" ry="15.84"/>
<text xml:space="preserve" text-anchor="middle" x="604.76" y="-1583.57" font-family="Arial" font-size="12.00">Audio</text>
</g>
<!-- spec&#45;&#45;audio -->
<g id="edge7" class="edge">
<title>spec--audio</title>
<path fill="none" stroke="#555555" d="M556.58,-1545.41C566.55,-1554.05 578.82,-1564.68 588.48,-1573.06"/>
</g>
</g>
</svg>